<?xml version="1.0" encoding="UTF-8"?>
<svg version="1.1" viewBox="0 0 24 24" xmlns="http://www.w3.org/2000/svg" xmlns:xlink="http://www.w3.org/1999/xlink">
    <!--Generated by IJSVG (https://github.com/curthard89/IJSVG)-->
    <g fill="#eee">
        <path d="M20.826,11.63l-11.36,-11.482c-0.094,-0.095 -0.222,-0.148 -0.355,-0.148h-8.572c-0.202,0 -0.384,0.122 -0.462,0.308c-0.077,0.187 -0.035,0.402 0.108,0.545l11.108,11.129l-11.101,11.163c-0.143,0.144 -0.185,0.358 -0.107,0.545c0.077,0.187 0.259,0.308 0.462,0.308h8.571c0.134,0 0.262,-0.054 0.356,-0.149l11.353,-11.517c0.192,-0.194 0.192,-0.508 -0.001,-0.702Z" transform="translate(1.529, 0.002)"></path>
    </g>
    <path fill="none" d="M0,0h24v24h-24Z"></path>
</svg>
