<?xml version="1.0" encoding="UTF-8"?>
<svg version="1.1" viewBox="0 0 24 24" xmlns="http://www.w3.org/2000/svg" xmlns:xlink="http://www.w3.org/1999/xlink">
    <!--Generated by IJSVG (https://github.com/curthard89/IJSVG)-->
    <g fill="#eee">
        <path d="M20.859,23.072l-11.035,-11.057l11.101,-11.162c0.143,-0.144 0.185,-0.358 0.107,-0.545c-0.078,-0.187 -0.26,-0.308 -0.462,-0.308h-8.571c-0.133,0 -0.261,0.053 -0.354,0.147l-11.451,11.516c-0.194,0.195 -0.194,0.511 -8.88178e-16,0.706l11.46,11.483c0.093,0.094 0.221,0.147 0.353,0.147h8.571c0.007,0 0.014,0 0.02,0c0.276,0 0.5,-0.224 0.5,-0.5c0.001,-0.181 -0.096,-0.339 -0.239,-0.427Z" transform="translate(1.454, 0.001)"></path>
    </g>
    <path fill="none" d="M0,0h24v24h-24Z"></path>
</svg>
